#!OML:ASF E:\Style4\Style4.ASF
:FULLY-SPECIFIED
:DEGREES
3115
root -0.38579 17.6017 -2.59015 1.07937 -0.633995 1.73531
lowerback 12.3192 2.14748 -1.27658
upperback 7.10312 2.70587 0.547818
thorax 0.447723 1.3069 0.969167
lowerneck 2.73254 -4.30399 -6.94735
upperneck 10.337 -6.17804 5.44986
head 3.33706 -3.15575 2.90633
rclavicle -2.92213e-014 7.95139e-015
rhumerus -360.01 27.3944 -433.689
rradius 99.9215
rwrist 16.1907
rhand -29.6843 14.0895
rfingers 7.12502
rthumb -3.01254 -15.869
lclavicle -2.92213e-014 7.95139e-015
lhumerus 0.547273 -31.5845 73.6458
lradius 98.6034
lwrist -7.4422
lhand -22.4816 26.8967
lfingers 7.12502
lthumb 3.94373 56.8399
rfemur -19.8311 -0.150464 17.3359
rtibia 37.778
rfoot -18.5606 -10.577
rtoes -8.49462
lfemur -16.9729 2.24755 -20.2851
ltibia 36.1091
lfoot -20.2277 9.22844
ltoes -11.7336
3116
root -0.383294 17.6127 -2.5905 1.15449 -0.660506 1.63678
lowerback 12.3348 2.1495 -1.15315
upperback 7.0887 2.72073 0.558763
thorax 0.428576 1.31772 0.908692
lowerneck 2.74022 -4.32501 -6.92157
upperneck 10.2179 -6.20883 5.51635
head 3.29831 -3.16807 2.9238
rclavicle 2.08724e-014 -1.51076e-014
rhumerus -359.635 27.5553 -433.433
rradius 100.59
rwrist 17.8683
rhand -29.6601 15.0621
rfingers 7.12502
rthumb -2.98922 -14.8967
lclavicle 2.08724e-014 -1.51076e-014
lhumerus 0.196272 -31.82 73.5803
lradius 99.0975
lwrist -8.47234
lhand -22.0644 26.8701
lfingers 7.12502
lthumb 4.34654 56.8055
rfemur -19.7697 -0.127542 17.4361
rtibia 37.4916
rfoot -18.3948 -10.6081
rtoes -8.30082
lfemur -16.948 2.22521 -20.1884
ltibia 35.9128
lfoot -20.1222 9.31043
ltoes -11.9006
3117
root -0.379808 17.6241 -2.59136 1.26977 -0.698005 1.50424
lowerback 12.3215 2.13297 -1.02691
upperback 7.04259 2.71195 0.590484
thorax 0.391451 1.31656 0.87127
lowerneck 2.73314 -4.33133 -6.87104
upperneck 10.1774 -6.21638 5.52207
head 3.28399 -3.16965 2.91595
rclavicle -2.98177e-015 -7.95139e-016
rhumerus -359.18 27.7721 -433.148
rradius 101.194
rwrist 19.468
rhand -30.1435 16.242
rfingers 7.12502
rthumb -3.45604 -13.7097
lclavicle -2.98177e-015 -7.95139e-016
lhumerus -0.254265 -32.0781 73.5168
lradius 99.6196
lwrist -9.1347
lhand -21.9728 26.6227
lfingers 7.12502
lthumb 4.43501 56.5563
rfemur -19.7524 -0.0804911 17.5655
rtibia 37.209
rfoot -18.2566 -10.5892
rtoes -7.95246
lfemur -16.9661 2.23196 -20.0589
ltibia 35.7095
lfoot -20.0047 9.3489
ltoes -11.8479
3118
root -0.375665 17.6357 -2.59134 1.37491 -0.774972 1.50317
lowerback 12.3126 2.15065 -1.07583
upperback 6.98416 2.73023 0.613225
thorax 0.331225 1.32432 0.918914
lowerneck 2.77484 -4.34609 -6.85301
upperneck 10.1443 -6.23746 5.52055
head 3.26537 -3.17997 2.9122
rclavicle 3.57812e-014 -1.63003e-014
rhumerus -358.737 27.8921 -432.824
rradius 101.818
rwrist 20.8335
rhand -30.9106 17.4376
rfingers 7.12502
rthumb -4.19676 -12.5008
lclavicle 3.57812e-014 -1.63003e-014
lhumerus -0.734943 -32.4046 73.4781
lradius 100.201
lwrist -9.78123
lhand -22.0236 26.5974
lfingers 7.12502
lthumb 4.38597 56.532
rfemur -19.7451 -0.076685 17.548
rtibia 36.9602
rfoot -18.1397 -10.4932
rtoes -8.01798
lfemur -16.9512 2.24186 -20.0759
ltibia 35.4839
lfoot -19.9337 9.47743
ltoes -12.1447
3119
root -0.370821 17.6462 -2.59048 1.49885 -0.884826 1.59997
lowerback 12.2584 2.18675 -1.14334
upperback 6.9424 2.7707 0.557982
thorax 0.315235 1.34386 0.895671
lowerneck 2.79571 -4.36318 -6.80847
upperneck 10.0943 -6.26269 5.5527
head 3.24543 -3.19016 2.91471
rclavicle 1.64991e-014 0
rhumerus -358.25 27.9808 -432.525
rradius 102.475
rwrist 21.9001
rhand -31.8314 18.0953
rfingers 7.12502
rthumb -5.08591 -11.8237
lclavicle 1.64991e-014 0
lhumerus -1.06275 -32.96 73.3194
lradius 100.707
lwrist -10.0704
lhand -22.7177 26.6905
lfingers 7.12502
lthumb 3.71573 56.6379
rfemur -19.7957 -0.0496875 17.416
rtibia 36.768
rfoot -18.0947 -10.369
rtoes -8.04449
lfemur -16.9328 2.28078 -20.2072
ltibia 35.2386
lfoot -19.9235 9.68462
ltoes -12.6728
3120
root -0.366686 17.656 -2.59283 1.65024 -0.977079 1.6981
lowerback 12.2205 2.20924 -1.22246
upperback 6.88537 2.79197 0.517075
thorax 0.27375 1.35344 0.895085
lowerneck 2.78179 -4.37915 -6.80175
upperneck 10.0853 -6.28384 5.56178
head 3.24655 -3.19996 2.91571
rclavicle 1.03368e-014 -1.07344e-014
rhumerus -357.656 28.1986 -432.161
rradius 103.104
rwrist 22.6233
rhand -32.8947 18.4043
rfingers 7.12502
rthumb -6.11258 -11.4875
lclavicle 1.03368e-014 -1.07344e-014
lhumerus -1.38338 -33.5862 73.2075
lradius 101.142
lwrist -10.1285
lhand -23.9026 26.6284
lfingers 7.12502
lthumb 2.57143 56.5927
rfemur -19.9039 0.0343679 17.2867
rtibia 36.6059
rfoot -17.9884 -10.3716
rtoes -8.06869
lfemur -16.9669 2.34422 -20.3406
ltibia 34.9866
lfoot -19.8005 9.77404
ltoes -12.7491
3121
root -0.361077 17.6662 -2.5966 1.86974 -1.05004 1.79374
lowerback 12.1412 2.22041 -1.30312
upperback 6.79932 2.79884 0.478753
thorax 0.224265 1.356 0.900626
lowerneck 2.76952 -4.39079 -6.79763
upperneck 10.1249 -6.29998 5.56135
head 3.26361 -3.2077 2.9141
rclavicle -6.75868e-015 1.70955e-014
rhumerus -357.003 28.3434 -431.837
rradius 103.551
rwrist 23.2258
rhand -34.2449 18.9816
rfingers 7.12502
rthumb -7.41594 -10.8684
lclavicle -6.75868e-015 1.70955e-014
lhumerus -1.70121 -34.0626 73.1026
lradius 101.73
lwrist -10.4808
lhand -24.4523 26.7025
lfingers 7.12502
lthumb 2.0405 56.6725
rfemur -20.0963 0.0235452 17.1574
rtibia 36.4594
rfoot -17.8424 -10.3433
rtoes -8.42265
lfemur -17.0819 2.33026 -20.4787
ltibia 34.7542
lfoot -19.7031 9.74138
ltoes -12.466
3122
root -0.355514 17.6765 -2.5989 2.05252 -1.1346 1.82194
lowerback 12.089 2.25267 -1.28624
upperback 6.71385 2.84293 0.441201
thorax 0.164245 1.37977 0.846923
lowerneck 2.85606 -4.42605 -6.73508
upperneck 10.0961 -6.34974 5.54866
head 3.23767 -3.23139 2.89823
rclavicle -1.31198e-014 -5.96354e-015
rhumerus -356.426 28.3615 -431.594
rradius 103.918
rwrist 23.6886
rhand -35.5907 20.0146
rfingers 7.12502
rthumb -8.71481 -9.78549
lclavicle -1.31198e-014 -5.96354e-015
lhumerus -1.95665 -34.5148 73.0241
lradius 102.386
lwrist -10.8105
lhand -24.613 26.7927
lfingers 7.12502
lthumb 1.8853 56.7641
rfemur -20.2394 0.0591402 17.0987
rtibia 36.2996
rfoot -17.7245 -10.3153
rtoes -8.55274
lfemur -17.1677 2.34135 -20.5351
ltibia 34.5569
lfoot -19.6387 9.65949
ltoes -11.8732
3123
root -0.350466 17.685 -2.60135 2.18538 -1.2593 1.78811
lowerback 12.0886 2.29288 -1.16593
upperback 6.65427 2.90682 0.381988
thorax 0.109164 1.41613 0.709218
lowerneck 2.9368 -4.46088 -6.61107
upperneck 10.0172 -6.4 5.57442
head 3.19437 -3.25201 2.88423
rclavicle -3.8763e-014 4.37326e-015
rhumerus -355.799 28.3595 -431.378
rradius 104.237
rwrist 23.887
rhand -36.7157 21.2428
rfingers 7.12502
rthumb -9.80033 -8.5091
lclavicle -3.8763e-014 4.37326e-015
lhumerus -2.15756 -34.9235 72.9101
lradius 102.997
lwrist -10.9714
lhand -24.9389 26.6674
lfingers 7.12502
lthumb 1.5706 56.6413
rfemur -20.3357 0.134181 17.1131
rtibia 36.132
rfoot -17.6272 -10.2319
rtoes -8.42447
lfemur -17.2217 2.38522 -20.517
ltibia 34.398
lfoot -19.4926 9.72774
ltoes -11.499
3124
root -0.344462 17.6935 -2.60433 2.32689 -1.36567 1.78695
lowerback 12.0812 2.31341 -1.03805
upperback 6.60523 2.9455 0.30187
thorax 0.0712614 1.44022 0.549239
lowerneck 2.9229 -4.51043 -6.52086
upperneck 10.0232 -6.46727 5.59593
head 3.20071 -3.2812 2.87269
rclavicle 2.38542e-015 2.78299e-015
rhumerus -355.153 28.372 -431.158
rradius 104.535
rwrist 23.8799
rhand -37.8114 22.4515
rfingers 7.12502
rthumb -10.8574 -7.24778
lclavicle 2.38542e-015 2.78299e-015
lhumerus -2.37056 -35.2144 72.8384
lradius 103.522
lwrist -11.3015
lhand -25.3226 26.3672
lfingers 7.12502
lthumb 1.20004 56.3436
rfemur -20.4378 0.185841 17.0919
rtibia 35.9751
rfoot -17.5463 -10.1647
rtoes -8.5487
lfemur -17.3066 2.41096 -20.5477
ltibia 34.2744
lfoot -19.4005 9.8577
ltoes -11.8506
